<?xml version="1.0" encoding="utf-8"?>
<svg enable-background="new 0 0 32 32" version="1.1" width="300px" height="300px" viewBox="0 0 300 300" xmlns="http://www.w3.org/2000/svg" xmlns:bx="https://boxy-svg.com">
  <defs>
    <bx:grid x="0" y="0" width="16" height="16"/>
  </defs>
  <g style="" transform="matrix(10.136264, 0, 0, 10.136264, -460.814423, -9.136267)">
    <title>cristal</title>
    <path d="M26,11c0,2.53-0.95,4.94-2.67,6.8C22.47,18.72,22,19.86,22,21c0,0.55-0.45,1-1,1H11c-0.55,0-1-0.45-1-1    c0-1.14-0.47-2.28-1.33-3.2C6.93,15.93,5.98,13.48,6,10.93C6.04,5.6,10.4,1.15,15.72,1H16C21.51,1,26,5.49,26,11z" style="fill: rgb(255, 217, 131);">
      <title>bola</title>
    </path>
    <g transform="matrix(1, 0, 0, 1, 0.266029, 1.844525)">
      <title>ojos</title>
      <path style="fill: none; stroke: rgb(255, 238, 197);" d="M 11.304 5.305 C 10.227 3.095 12.048 1.693 13.514 2.819"/>
      <path style="fill: none; stroke: rgb(255, 238, 197);" d="M 18.093 2.487 C 17.016 4.697 18.837 6.099 20.303 4.973" transform="matrix(-1, 0, 0, -1, 38.070766, 7.857707)"/>
    </g>
    <g transform="matrix(1.513613, 0, 0, 1.255136, -48.775887, 3.950023)" style="">
      <title>filamento</title>
      <path style="fill: rgb(216, 216, 216); stroke: rgb(255, 204, 77);" d="M 43.084 12.845 L 43.027 7.673"/>
      <path style="fill: none; stroke: rgb(255, 205, 77); paint-order: fill;" d="M 40.071 5.456 C 42.252 8.401 44.606 8.07 45.243 5.456"/>
    </g>
  </g>
  <g style="" transform="matrix(7.190858, 0, 0, 7.497186, -413.820862, 55.587227)">
    <title>plomo</title>
    <path d="M20,27c0,0.35-0.04,0.68-0.13,1c-0.44,1.73-2.01,3-3.87,3s-3.43-1.27-3.87-3C12.04,27.68,12,27.35,12,27    c0-0.55,0.45-1,1-1h6C19.55,26,20,26.45,20,27z" style="fill: rgb(234, 220, 255);"/>
  </g>
  <g style="" transform="matrix(10.136264, 0, 0, 10.136264, -460.814423, -9.136267)">
    <title>rosca</title>
    <path d="M22,21v5c0,1.1-0.9,2-2,2h-8c-1.1,0-2-0.9-2-2v-5c0-0.55,0.45-1,1-1h10C21.55,20,22,20.45,22,21z" style="fill: rgb(175, 157, 198);"/>
  </g>
  <g style="" transform="matrix(10.136264, 0, 0, 10.136264, -460.814423, -9.136267)">
    <rect fill="#DB5E5B" height="2" width="12" x="10" y="23" style="visibility: hidden;"/>
  </g>
  <g style="" transform="matrix(10.136264, 0, 0, 10.136264, 376.457153, -9.136267)">
    <title>cristal</title>
    <path d="M26,11c0,2.53-0.95,4.94-2.67,6.8C22.47,18.72,22,19.86,22,21c0,0.55-0.45,1-1,1H11c-0.55,0-1-0.45-1-1    c0-1.14-0.47-2.28-1.33-3.2C6.93,15.93,5.98,13.48,6,10.93C6.04,5.6,10.4,1.15,15.72,1H16C21.51,1,26,5.49,26,11z" style="fill: rgb(255, 217, 131);">
      <title>bola</title>
    </path>
    <g transform="matrix(1, 0, 0, 1, 0.266029, 1.844525)">
      <title>ojos</title>
      <ellipse style="fill: rgb(255, 238, 199);" cx="12.769" cy="5.015" rx="2.793" ry="1.907" transform="matrix(0.91316, -0.407602, 0.407602, 0.91316, -1.112565, 4.792971)"/>
      <ellipse style="fill: rgb(255, 238, 199);" cx="12.769" cy="5.015" rx="2.793" ry="1.907" transform="matrix(0.90265, 0.430376, -0.430376, 0.90265, 9.66344, -5.785812)"/>
    </g>
    <g transform="matrix(1.513613, 0, 0, 1.255136, -48.775887, 3.950023)" style="">
      <title>filamento</title>
      <path style="fill: rgb(216, 216, 216); stroke: rgb(255, 204, 77);" d="M 43.084 12.845 L 43.027 7.673"/>
      <path style="fill: none; stroke: rgb(255, 205, 77); paint-order: fill;" d="M 40.071 5.456 C 42.252 8.401 44.606 8.07 45.243 5.456"/>
    </g>
  </g>
  <g style="" transform="matrix(7.190858, 0, 0, 7.497186, 423.450745, 55.587212)">
    <title>plomo</title>
    <path d="M20,27c0,0.35-0.04,0.68-0.13,1c-0.44,1.73-2.01,3-3.87,3s-3.43-1.27-3.87-3C12.04,27.68,12,27.35,12,27    c0-0.55,0.45-1,1-1h6C19.55,26,20,26.45,20,27z" style="fill: rgb(234, 220, 255);"/>
  </g>
  <g style="" transform="matrix(10.136264, 0, 0, 10.136264, 376.457153, -9.136267)">
    <title>rosca</title>
    <path d="M22,21v5c0,1.1-0.9,2-2,2h-8c-1.1,0-2-0.9-2-2v-5c0-0.55,0.45-1,1-1h10C21.55,20,22,20.45,22,21z" style="fill: rgb(175, 157, 198);"/>
  </g>
  <g style="" transform="matrix(10.136264, 0, 0, 10.136264, 376.457153, -9.136267)">
    <rect fill="#DB5E5B" height="2" width="12" x="10" y="23" style="visibility: hidden;"/>
  </g>
  <g style="" transform="matrix(10.136264, 0, 0, 10.136264, -12.178646, -3.636257)">
    <title>cristal</title>
    <path d="M26,11c0,2.53-0.95,4.94-2.67,6.8C22.47,18.72,22,19.86,22,21c0,0.55-0.45,1-1,1H11c-0.55,0-1-0.45-1-1    c0-1.14-0.47-2.28-1.33-3.2C6.93,15.93,5.98,13.48,6,10.93C6.04,5.6,10.4,1.15,15.72,1H16C21.51,1,26,5.49,26,11z" style="fill: rgb(255, 217, 131);">
      <title>bola</title>
    </path>
    <g transform="matrix(1, 0, 0, 1, 0.266029, 1.844525)">
      <title>ojos</title>
      <path style="fill: none; stroke: rgb(255, 238, 197); stroke-linecap: round;" d="M 11.304 5.305 C 10.227 3.095 12.048 1.693 13.514 2.819"/>
      <path style="fill: none; stroke: rgb(255, 238, 197); stroke-linecap: round;" d="M 18.093 2.487 C 17.016 4.697 18.837 6.099 20.303 4.973" transform="matrix(-1, 0, 0, -1, 38.070766, 7.857707)"/>
    </g>
    <g transform="matrix(1.513613, 0, 0, 1.255136, -48.775887, 3.950023)" style="">
      <title>filamento</title>
      <path style="fill: rgb(216, 216, 216); stroke: rgb(255, 198, 54);" d="M 43.084 12.845 L 43.027 7.673"/>
      <path style="fill: none; paint-order: fill; stroke-linecap: round; stroke: rgb(255, 198, 54);" d="M 40.071 5.456 C 42.252 8.401 44.606 8.07 45.243 5.456"/>
    </g>
  </g>
  <g style="" transform="matrix(7.190858, 0, 0, 7.497186, 34.814915, 61.087223)">
    <title>plomo</title>
    <path d="M20,27c0,0.35-0.04,0.68-0.13,1c-0.44,1.73-2.01,3-3.87,3s-3.43-1.27-3.87-3C12.04,27.68,12,27.35,12,27    c0-0.55,0.45-1,1-1h6C19.55,26,20,26.45,20,27z" style="fill: rgb(234, 220, 255);"/>
  </g>
  <g style="" transform="matrix(10.136264, 0, 0, 10.136264, -12.178646, -3.636257)">
    <title>rosca</title>
    <path d="M22,21v5c0,1.1-0.9,2-2,2h-8c-1.1,0-2-0.9-2-2v-5c0-0.55,0.45-1,1-1h10C21.55,20,22,20.45,22,21z" style="fill: rgb(175, 157, 198);"/>
  </g>
  <g style="" transform="matrix(10.136264, 0, 0, 10.136264, -12.178646, -3.636257)">
    <rect fill="#DB5E5B" height="2" width="12" x="10" y="23" style="visibility: hidden;"/>
  </g>
</svg>